<svg width="30" height="39" viewBox="0 0 30 39" fill="none" xmlns="http://www.w3.org/2000/svg">
<g filter="url(#filter0_d_5_51)">
<path d="M15.5 7.89985C13.5705 7.89985 12 9.59469 12 11.677C12 13.7592 13.5705 15.4541 15.5 15.4541C17.4295 15.4541 19 13.7592 19 11.677C19 9.59469 17.4295 7.89985 15.5 7.89985ZM15.5 14.3749C14.1215 14.3749 13 13.1646 13 11.677C13 10.1893 14.1215 8.97902 15.5 8.97902C16.8785 8.97902 18 10.1893 18 11.677C18 13.1646 16.8785 14.3749 15.5 14.3749Z" fill="#F5FF2C"/>
<path d="M15.5 7.89985C13.5705 7.89985 12 9.59469 12 11.677C12 13.7592 13.5705 15.4541 15.5 15.4541C17.4295 15.4541 19 13.7592 19 11.677C19 9.59469 17.4295 7.89985 15.5 7.89985ZM15.5 14.3749C14.1215 14.3749 13 13.1646 13 11.677C13 10.1893 14.1215 8.97902 15.5 8.97902C16.8785 8.97902 18 10.1893 18 11.677C18 13.1646 16.8785 14.3749 15.5 14.3749Z" stroke="#F5FF2C"/>
</g>
<g filter="url(#filter1_d_5_51)">
<path d="M22.0725 4.22511C20.1837 2.373 17.6721 1.35286 15.001 1.35286C12.3294 1.35286 9.81836 2.373 7.92949 4.22511C4.43389 7.65218 3.99948 14.1003 6.98871 18.007L15.001 29.3529L23.0013 18.0229C26.0025 14.1003 25.5681 7.65218 22.0725 4.22511ZM22.1555 17.4251L15.001 27.556L7.8351 17.4093C5.12383 13.8646 5.51235 8.04132 8.66741 4.94816C10.3592 3.28934 12.6084 2.37556 15.001 2.37556C17.3936 2.37556 19.6429 3.28934 21.3351 4.94816C24.4902 8.04132 24.8787 13.8646 22.1555 17.4251Z" fill="#F5FF2C"/>
<path d="M22.0725 4.22511C20.1837 2.373 17.6721 1.35286 15.001 1.35286C12.3294 1.35286 9.81836 2.373 7.92949 4.22511C4.43389 7.65218 3.99948 14.1003 6.98871 18.007L15.001 29.3529L23.0013 18.0229C26.0025 14.1003 25.5681 7.65218 22.0725 4.22511ZM22.1555 17.4251L15.001 27.556L7.8351 17.4093C5.12383 13.8646 5.51235 8.04132 8.66741 4.94816C10.3592 3.28934 12.6084 2.37556 15.001 2.37556C17.3936 2.37556 19.6429 3.28934 21.3351 4.94816C24.4902 8.04132 24.8787 13.8646 22.1555 17.4251Z" stroke="#F5FF2C"/>
</g>
<defs>
<filter id="filter0_d_5_51" x="7.5" y="7.39985" width="16" height="16.5542" filterUnits="userSpaceOnUse" color-interpolation-filters="sRGB">
<feFlood flood-opacity="0" result="BackgroundImageFix"/>
<feColorMatrix in="SourceAlpha" type="matrix" values="0 0 0 0 0 0 0 0 0 0 0 0 0 0 0 0 0 0 127 0" result="hardAlpha"/>
<feOffset dy="4"/>
<feGaussianBlur stdDeviation="2"/>
<feComposite in2="hardAlpha" operator="out"/>
<feColorMatrix type="matrix" values="0 0 0 0 1 0 0 0 0 1 0 0 0 0 1 0 0 0 0.25 0"/>
<feBlend mode="normal" in2="BackgroundImageFix" result="effect1_dropShadow_5_51"/>
<feBlend mode="normal" in="SourceGraphic" in2="effect1_dropShadow_5_51" result="shape"/>
</filter>
<filter id="filter1_d_5_51" x="0.5" y="0.852859" width="29" height="37.3668" filterUnits="userSpaceOnUse" color-interpolation-filters="sRGB">
<feFlood flood-opacity="0" result="BackgroundImageFix"/>
<feColorMatrix in="SourceAlpha" type="matrix" values="0 0 0 0 0 0 0 0 0 0 0 0 0 0 0 0 0 0 127 0" result="hardAlpha"/>
<feOffset dy="4"/>
<feGaussianBlur stdDeviation="2"/>
<feComposite in2="hardAlpha" operator="out"/>
<feColorMatrix type="matrix" values="0 0 0 0 1 0 0 0 0 1 0 0 0 0 1 0 0 0 0.25 0"/>
<feBlend mode="normal" in2="BackgroundImageFix" result="effect1_dropShadow_5_51"/>
<feBlend mode="normal" in="SourceGraphic" in2="effect1_dropShadow_5_51" result="shape"/>
</filter>
</defs>
</svg>
