<svg width="51" height="50" viewBox="0 0 51 50" fill="none" xmlns="http://www.w3.org/2000/svg">
<g filter="url(#filter0_d_4_38)">
<path d="M45.1238 30.9477V36.9693C45.126 37.5283 45.0113 38.0816 44.7869 38.5938C44.5625 39.106 44.2334 39.5658 43.8207 39.9437C43.4079 40.3216 42.9207 40.6093 42.3901 40.7884C41.8594 40.9675 41.2972 41.034 40.7394 40.9837C34.5506 40.3126 28.6059 38.202 23.3828 34.8216C18.5234 31.7399 14.4035 27.6281 11.3157 22.7784C7.91672 17.542 5.80148 11.5802 5.14132 5.3759C5.09107 4.82084 5.15716 4.26142 5.3354 3.73325C5.51365 3.20509 5.80013 2.71974 6.17662 2.30813C6.5531 1.89652 7.01134 1.56765 7.52215 1.34247C8.03297 1.11728 8.58516 1.00072 9.14359 1.00019H15.1772C16.1532 0.990607 17.0994 1.33556 17.8395 1.97074C18.5795 2.60593 19.0629 3.48802 19.1995 4.45259C19.4542 6.37964 19.9265 8.27175 20.6074 10.0928C20.878 10.8113 20.9365 11.592 20.7761 12.3427C20.6157 13.0933 20.2431 13.7823 19.7023 14.328L17.1481 16.8772C20.0112 21.9023 24.1802 26.063 29.2153 28.9204L31.7695 26.3713C32.3163 25.8316 33.0067 25.4597 33.7588 25.2996C34.5109 25.1395 35.2932 25.198 36.0131 25.468C37.8378 26.1476 39.7336 26.6189 41.6645 26.8731C42.6415 27.0106 43.5337 27.5017 44.1715 28.253C44.8093 29.0043 45.1482 29.9633 45.1238 30.9477Z" stroke="#F5FF2C" stroke-width="2" stroke-linecap="round" stroke-linejoin="round" shape-rendering="crispEdges"/>
</g>
<defs>
<filter id="filter0_d_4_38" x="0.125" y="0" width="50" height="50" filterUnits="userSpaceOnUse" color-interpolation-filters="sRGB">
<feFlood flood-opacity="0" result="BackgroundImageFix"/>
<feColorMatrix in="SourceAlpha" type="matrix" values="0 0 0 0 0 0 0 0 0 0 0 0 0 0 0 0 0 0 127 0" result="hardAlpha"/>
<feOffset dy="4"/>
<feGaussianBlur stdDeviation="2"/>
<feComposite in2="hardAlpha" operator="out"/>
<feColorMatrix type="matrix" values="0 0 0 0 1 0 0 0 0 1 0 0 0 0 1 0 0 0 0.25 0"/>
<feBlend mode="normal" in2="BackgroundImageFix" result="effect1_dropShadow_4_38"/>
<feBlend mode="normal" in="SourceGraphic" in2="effect1_dropShadow_4_38" result="shape"/>
</filter>
</defs>
</svg>
